:SAMPLES-PER-SECOND 30
:FULLY-SPECIFIED
:DEGREES
270
root  -59.3908 40.591 1.91389 -12.3806 -86.2401 9.33615
RightUpLeg  -12.1885 -11.2113 -8.36456
RightLeg  5.65067 -7.16163 3.94077
RightFoot  11.0872 -0.00925289 0.428331
RightToes  0.000481921 0.542163 -0.142578
Spine  3.81511 -1.20677 -2.60389
Spine1  10.2904 -3.22436 6.40623
HEad  5.41935 -7.88227 10.9848
LeftShoulder1  10.1829 -14.018 -50.7312
LeftArm  -2.24337 22.4898 -23.247
LeftForeArm  41.9668 -10.865 -6.48215
LeftHand  -0.25398 0.0180481 5.50724
RightShoulder  4.6283 7.67089 35.4475
RightArm  -5.15978 -11.335 33.2841
RightForeArm  10.7767 15.9869 5.43398
RightHand  -0.9653 3.10751 -13.4245
LeftUpLeg  10.6713 8.6034 2.9889
LeftLeg  11.3135 6.06764 -1.2948
LeftFoot  -13.6435 -0.00116435 -4.15609
LeftToes  1.06246e-005 4.65868e-005 -8.65513e-006
271
root  -60.1017 40.7202 1.46351 -6.78954 -85.7269 3.93648
RightUpLeg  -11.7301 -11.4318 -7.49231
RightLeg  6.97129 -7.56079 3.78738
RightFoot  8.99951 0.14803 -0.477189
RightToes  0.000481921 0.542163 -0.142578
Spine  4.06191 -0.919249 -1.46592
Spine1  9.91932 -2.67063 5.80804
HEad  4.6181 -8.0738 11.1608
LeftShoulder1  10.0641 -13.9934 -50.2157
LeftArm  -3.62839 24.4005 -23.5916
LeftForeArm  40.7305 -11.3506 -5.96001
LeftHand  -0.25398 0.0180481 5.50724
RightShoulder  4.60096 7.72943 34.9956
RightArm  -6.21096 -10.4882 33.5665
RightForeArm  11.9491 15.1071 5.52075
RightHand  -0.949581 3.07364 -13.262
LeftUpLeg  10.9443 9.44913 4.45721
LeftLeg  12.0305 4.23841 -0.83923
LeftFoot  -12.2063 0.0286176 -6.09902
LeftToes  1.06246e-005 4.65868e-005 -8.65513e-006
272
root  -60.7938 40.8517 0.969632 -5.83217 -84.2903 3.29235
RightUpLeg  -11.1055 -11.3581 -7.15751
RightLeg  7.83428 -8.99878 3.66385
RightFoot  7.70574 0.279251 -1.34662
RightToes  0.000481921 0.542163 -0.142578
Spine  4.1081 -1.01068 -1.84821
Spine1  9.65698 -2.88436 6.67291
HEad  4.06926 -8.08721 11.2246
LeftShoulder1  10.08 -14.1469 -49.8603
LeftArm  -4.68862 25.9305 -24.0419
LeftForeArm  38.5665 -11.8399 -5.58109
LeftHand  -0.25398 0.0180481 5.50724
RightShoulder  4.51128 7.6829 34.3736
RightArm  -6.73418 -9.64904 34.0796
RightForeArm  12.2496 15.0027 5.47951
RightHand  -0.948171 3.07094 -13.2468
LeftUpLeg  10.439 10.282 5.678
LeftLeg  13.4701 1.53279 -0.362537
LeftFoot  -10.2231 0.141029 -8.17279
LeftToes  1.06246e-005 4.65868e-005 -8.65513e-006
273
root  -61.4533 40.9284 0.494617 -4.29431 -82.4741 2.20109
RightUpLeg  -10.734 -11.2751 -6.83705
RightLeg  8.87667 -10.8006 3.54055
RightFoot  6.38489 0.353335 -1.98351
RightToes  0.000481921 0.542163 -0.142578
Spine  4.03218 -1.37113 -2.10464
Spine1  9.43638 -3.35345 7.63789
HEad  3.61899 -8.09449 11.3122
LeftShoulder1  10.1853 -14.3724 -49.7463
LeftArm  -4.73613 26.6662 -24.0787
LeftForeArm  36.8509 -12.317 -5.45551
LeftHand  -0.25398 0.0180481 5.50724
RightShoulder  4.43696 7.60927 33.9767
RightArm  -6.2769 -9.12012 34.5285
RightForeArm  10.707 16.2233 5.2788
RightHand  -0.944345 2.95152 -13.3729
LeftUpLeg  8.91819 10.03 6.62985
LeftLeg  16.1274 -0.154208 0.128773
LeftFoot  -8.40665 0.30368 -9.90601
LeftToes  1.06246e-005 4.65868e-005 -8.65513e-006
274
root  -62.0654 40.9442 0.085305 -1.62849 -81.0706 -0.0888565
RightUpLeg  -10.5645 -11.3453 -6.20452
RightLeg  10.2303 -12.1899 3.35085
RightFoot  4.46275 0.353648 -2.32557
RightToes  0.000481921 0.542163 -0.142578
Spine  4.22301 -1.68335 -1.03663
Spine1  9.01497 -3.44567 7.45405
HEad  3.06586 -8.20456 11.4462
LeftShoulder1  10.2465 -14.4873 -49.7259
LeftArm  -3.954 26.5007 -23.795
LeftForeArm  36.621 -13.0497 -5.39119
LeftHand  -0.25398 0.0180481 5.50724
RightShoulder  4.4112 7.57337 33.8742
RightArm  -4.76017 -8.97707 34.7537
RightForeArm  7.54782 18.6386 4.95453
RightHand  -0.955249 2.85168 -13.6759
LeftUpLeg  6.93971 8.33632 7.45481
LeftLeg  19.643 0.378423 0.500413
LeftFoot  -7.05227 0.469889 -11.3949
LeftToes  1.06246e-005 4.65868e-005 -8.65513e-006
275
root  -62.6106 40.9044 -0.26397 1.09878 -80.1475 -2.60122
RightUpLeg  -10.5504 -11.5186 -5.40414
RightLeg  11.8304 -13.0439 3.113
RightFoot  2.49348 0.32703 -2.5531
RightToes  0.000481921 0.542163 -0.142578
Spine  4.74792 -1.85405 0.99122
Spine1  8.52348 -3.17785 6.44484
HEad  2.30795 -8.31574 11.5614
LeftShoulder1  10.221 -14.4663 -49.6606
LeftArm  -3.21706 25.7475 -23.7579
LeftForeArm  36.9989 -14.5394 -5.02416
LeftHand  -0.25398 0.0180481 5.50724
RightShoulder  4.42552 7.5977 33.9156
RightArm  -2.87956 -8.78117 34.6511
RightForeArm  4.47142 21.4439 4.73382
RightHand  -0.996833 2.94471 -14.104
LeftUpLeg  4.62969 6.84269 8.31305
LeftLeg  23.9769 1.52569 1.07398
LeftFoot  -5.56559 0.668863 -12.5405
LeftToes  1.06246e-005 4.65868e-005 -8.65513e-006
276
root  -63.0848 40.8307 -0.580493 3.12631 -79.2258 -4.50552
RightUpLeg  -10.5901 -11.8412 -4.71527
RightLeg  13.44 -13.6581 2.93113
RightFoot  0.87948 0.295361 -2.69929
RightToes  0.000481921 0.542163 -0.142578
Spine  5.34369 -2.02333 2.72399
Spine1  8.39616 -3.0894 6.03475
HEad  1.23604 -8.30955 11.5793
LeftShoulder1  10.2152 -14.385 -49.8571
LeftArm  -3.17219 24.6403 -24.1924
LeftForeArm  36.2922 -16.9616 -4.2543
LeftHand  -0.25398 0.0180481 5.50724
RightShoulder  4.42624 7.64913 33.7397
RightArm  -1.55724 -7.87053 34.3141
RightForeArm  3.26744 23.7469 4.8898
RightHand  -1.03993 3.11938 -14.4127
LeftUpLeg  1.72102 5.46243 8.91049
LeftLeg  29.1418 3.07079 2.19929
LeftFoot  -2.94186 0.918113 -12.2916
LeftToes  1.06246e-005 4.65868e-005 -8.65513e-006
277
root  -63.4894 40.7431 -0.868184 4.3148 -78.193 -5.60073
RightUpLeg  -10.639 -12.3743 -4.20725
RightLeg  14.9795 -14.1466 2.80446
RightFoot  -0.690274 0.242736 -2.64953
RightToes  0.000481921 0.542163 -0.142578
Spine  5.89307 -2.20459 3.69746
Spine1  8.62526 -3.31152 6.61771
HEad  -0.0600088 -8.3488 11.6872
LeftShoulder1  10.3062 -14.3211 -50.4764
LeftArm  -3.78869 23.2363 -24.7849
LeftForeArm  34.4529 -20.0116 -3.48448
LeftHand  -0.25398 0.0180481 5.50724
RightShoulder  4.3923 7.69431 33.2798
RightArm  -0.886772 -6.21631 33.9484
RightForeArm  3.80253 25.1833 5.19734
RightHand  -1.04627 3.19008 -14.3843
LeftUpLeg  -1.6869 4.08026 9.05581
LeftLeg  34.8048 5.13486 4.18875
LeftFoot  0.232455 1.01678 -10.0622
LeftToes  1.06246e-005 4.65868e-005 -8.65513e-006
278
root  -63.8499 40.691 -1.12038 4.32674 -77.4907 -5.51635
RightUpLeg  -10.5926 -12.9414 -3.89331
RightLeg  16.1314 -14.3273 2.66303
RightFoot  -2.13112 0.188108 -2.51448
RightToes  0.000481921 0.542163 -0.142578
Spine  6.43014 -2.26535 4.30533
Spine1  8.7491 -3.36896 6.91485
HEad  -1.10787 -8.3395 12.204
LeftShoulder1  10.363 -14.3302 -50.7258
LeftArm  -4.95155 21.8049 -25.4294
LeftForeArm  33.5039 -23.3969 -3.31737
LeftHand  -0.25398 0.0180481 5.50724
RightShoulder  4.43763 7.83983 33.1769
RightArm  -0.762645 -4.51946 33.5437
RightForeArm  4.70919 25.8305 5.29727
RightHand  -1.02576 3.18533 -14.1182
LeftUpLeg  -4.87455 3.39051 8.68
LeftLeg  39.8862 7.28172 6.842
LeftFoot  1.86484 0.804651 -7.00054
LeftToes  1.06246e-005 4.65868e-005 -8.65513e-006
279
root  -64.2035 40.7262 -1.34314 2.49396 -77.3887 -3.51794
RightUpLeg  -10.3383 -13.2184 -3.91491
RightLeg  16.4859 -14.203 2.52089
RightFoot  -2.93834 0.165039 -2.51688
RightToes  0.000481921 0.542163 -0.142578
Spine  6.79659 -2.08792 4.56185
Spine1  8.81806 -3.08127 6.5509
HEad  -1.77078 -8.28925 12.8108
LeftShoulder1  10.3878 -14.3702 -50.7334
LeftArm  -6.32641 20.3813 -25.797
LeftForeArm  35.0202 -27.2246 -3.97584
LeftHand  -0.25398 0.0180481 5.50724
RightShoulder  4.45024 7.90675 33.0586
RightArm  -1.43098 -3.09182 33.6357
RightForeArm  5.21097 25.7931 5.26251
RightHand  -1.01969 3.19745 -14.0183
LeftUpLeg  -7.29872 3.8208 7.71043
LeftLeg  43.2109 8.96708 9.27959
LeftFoot  0.947845 0.515855 -4.83119
LeftToes  1.06246e-005 4.65868e-005 -8.65513e-006
280
root  -64.556 40.8222 -1.53966 -0.692102 -77.4898 -0.0497165
RightUpLeg  -9.95244 -13.1565 -4.26759
RightLeg  16.2314 -14.1339 2.44229
RightFoot  -3.23852 0.163335 -2.61416
RightToes  0.000481921 0.542163 -0.142578
Spine  6.86612 -1.8603 4.44935
Spine1  8.93556 -2.74988 5.95595
HEad  -2.21277 -8.19688 13.2117
LeftShoulder1  10.4187 -14.4528 -50.6515
LeftArm  -6.96502 19.2117 -25.8984
LeftForeArm  38.1358 -31.5768 -4.80044
LeftHand  -0.25398 0.0180481 5.50724
RightShoulder  4.43812 7.92837 32.8794
RightArm  -2.41114 -1.95295 34.1844
RightForeArm  4.83659 25.2891 5.16893
RightHand  -1.04052 3.18678 -14.313
LeftUpLeg  -9.09751 4.78455 6.35963
LeftLeg  44.3513 9.84192 10.5246
LeftFoot  -1.28386 0.386658 -4.33069
LeftToes  1.06246e-005 4.65868e-005 -8.65513e-006
281
root  -64.8906 40.9187 -1.70737 -3.64642 -77.3099 3.29483
RightUpLeg  -9.56174 -12.9591 -4.73267
RightLeg  15.7974 -14.4327 2.48304
RightFoot  -3.54815 0.156628 -2.6515
RightToes  0.000481921 0.542163 -0.142578
Spine  6.87309 -1.78969 4.21126
Spine1  8.77773 -2.63981 5.55967
HEad  -2.72158 -8.19076 13.2757
LeftShoulder1  10.445 -14.5716 -50.4478
LeftArm  -7.13194 18.4695 -25.8459
LeftForeArm  41.9613 -36.022 -5.67767
LeftHand  -0.25398 0.0180481 5.50724
RightShoulder  4.42774 7.93896 32.7527
RightArm  -3.11905 -1.23211 34.9022
RightForeArm  4.01917 24.7602 5.09373
RightHand  -1.06438 3.10714 -14.7611
LeftUpLeg  -10.6735 5.50733 5.03099
LeftLeg  43.6551 9.99231 10.4359
LeftFoot  -3.03621 0.378251 -4.95885
LeftToes  1.06246e-005 4.65868e-005 -8.65513e-006
282
root  -65.2036 41.0096 -1.84914 -5.81093 -76.9629 5.94069
RightUpLeg  -9.17676 -12.7003 -5.16581
RightLeg  15.1777 -14.9896 2.65391
RightFoot  -3.84784 0.149331 -2.67581
RightToes  0.000481921 0.542163 -0.142578
Spine  6.95281 -1.76639 3.8659
Spine1  8.29996 -2.67701 5.50307
HEad  -3.38432 -8.21097 12.928
LeftShoulder1  10.4777 -14.6643 -50.3487
LeftArm  -6.90138 17.8349 -25.5327
LeftForeArm  44.9008 -39.9751 -6.57377
LeftHand  -0.25398 0.0180481 5.50724
RightShoulder  4.40062 7.89805 32.6542
RightArm  -3.16825 -0.957733 35.5486
RightForeArm  3.40176 24.586 5.08731
RightHand  -1.07998 3.08515 -15.0075
LeftUpLeg  -12.1187 6.11892 3.88044
LeftLeg  41.5096 9.8917 9.62195
LeftFoot  -3.81756 0.398207 -5.70055
LeftToes  1.06246e-005 4.65868e-005 -8.65513e-006
